<svg width="150" height="150" viewBox="0 0 150 150" fill="none" xmlns="http://www.w3.org/2000/svg">
<g clip-path="url(#clip0_1174_124428)">
<path d="M146.004 94.8832C137.825 125.434 114.619 149.848 66.0117 149.999C5.50068 150.19 0.606147 107.892 0.00517916 66.9078C-0.687841 19.5887 68.3367 4.71969 105.911 0.277687C146.882 -4.5654 156.665 55.0189 146.004 94.8832Z" fill="#F5F5F5"/>
<path d="M45.6493 67.5968C42.9034 64.8509 42.9034 60.3989 45.6492 57.6531L72.5496 30.7528C75.2954 28.0069 79.7474 28.0069 82.4933 30.7528L95.5576 43.8171C98.3035 46.563 98.3035 51.0149 95.5576 53.7608L68.6573 80.6611C65.9114 83.407 61.4595 83.407 58.7136 80.6611L45.6493 67.5968Z" fill="#E0F0E6"/>
<path d="M89.1463 37.4062L95.2415 43.5014C96.3287 44.5886 97.0111 45.9273 97.2886 47.3302L45.0288 66.7737C43.0865 63.8683 43.3981 59.9027 45.9634 57.3374L52.1179 51.1828L89.1463 37.4062Z" fill="#B3C0B8"/>
<path d="M53.1131 65.3995C51.1715 62.0365 52.3237 57.7363 55.6867 55.7946L88.6327 36.7733C91.9957 34.8316 96.296 35.9839 98.2376 39.3469L107.475 55.3474C109.417 58.7104 108.265 63.0106 104.902 64.9522L71.9559 83.9736C68.5929 85.9153 64.2926 84.763 62.351 81.4L53.1131 65.3995Z" fill="#008330"/>
<path d="M104.796 50.7031L107.254 54.9608C108.294 56.7611 108.499 58.814 107.991 60.6723H52.4629C52.851 58.6019 54.1068 56.707 56.0741 55.5712L64.5059 50.7031H104.796Z" fill="#006926"/>
<path d="M33.3984 64.4414C33.3984 59.2637 37.5958 55.0664 42.7734 55.0664H105.646C110.824 55.0664 115.021 59.2637 115.021 64.4414V108.622C115.021 113.8 110.824 117.997 105.646 117.997H42.7734C37.5958 117.997 33.3984 113.8 33.3984 108.622V64.4414Z" fill="#8F6B46"/>
<path d="M108.262 55.5946C108.605 56.6019 108.79 57.6817 108.79 58.8049V105.535C108.79 108.977 106.001 111.766 102.56 111.766H37.1369C36.0137 111.766 34.934 111.58 33.9266 111.238C33.5842 110.231 33.3984 109.151 33.3984 108.028V65.0356C33.3984 59.5298 37.8618 55.0664 43.3676 55.0664H105.052C106.175 55.0664 107.255 55.2521 108.262 55.5946Z" fill="#C69C6D"/>
<path d="M88.8516 86.248C88.8516 81.0704 93.0489 76.873 98.2266 76.873H116.601C119.514 76.873 121.875 79.234 121.875 82.1465V90.9149C121.875 93.8274 119.514 96.1883 116.601 96.1883H98.2266C93.0489 96.1883 88.8516 91.991 88.8516 86.8133V86.248Z" fill="#E6C095"/>
<circle cx="96.3283" cy="86.2189" r="3.11537" fill="#C69C6D"/>
<path d="M126.123 150C139.391 150 150.146 139.244 150.146 125.977C150.146 112.709 139.391 101.953 126.123 101.953C112.855 101.953 102.1 112.709 102.1 125.977C102.1 139.244 112.855 150 126.123 150Z" fill="#EB0043"/>
<path fill-rule="evenodd" clip-rule="evenodd" d="M114.74 114.462C115.197 114.005 115.939 114.005 116.397 114.462L137.509 135.574C137.966 136.032 137.966 136.774 137.509 137.231C137.051 137.689 136.309 137.689 135.852 137.231L114.74 116.12C114.282 115.662 114.282 114.92 114.74 114.462Z" fill="white"/>
<path fill-rule="evenodd" clip-rule="evenodd" d="M137.509 114.462C137.966 114.92 137.966 115.662 137.509 116.12L116.397 137.231C115.939 137.689 115.197 137.689 114.74 137.231C114.282 136.774 114.282 136.032 114.74 135.574L135.852 114.462C136.309 114.005 137.051 114.005 137.509 114.462Z" fill="white"/>
</g>
<defs>
<clipPath id="clip0_1174_124428">
<rect width="150" height="150" fill="white"/>
</clipPath>
</defs>
</svg>
